<svg xmlns="http://www.w3.org/2000/svg" viewBox="0 0 518.55 158.85"><defs><style>.cls-1,.cls-3{fill:#e2d36b;}.cls-2,.cls-3{isolation:isolate;}.cls-3{font-size:178.69px;font-family:Montserrat-Bold, Montserrat;font-weight:700;}</style></defs><g id="Layer_1" data-name="Layer 1"><path class="cls-1" d="M191.71,76.57v55H163.84V80.86c0-15.54-7-22.69-18.22-22.69-12.5,0-21.26,8-21.26,25.19V131.6H96.49V80.86c0-15.54-6.61-22.69-18.22-22.69-12.33,0-21.09,8-21.09,25.19V131.6H29.32V35.48H55.94V46.56c7.14-8.22,17.86-12.51,30.18-12.51,13.4,0,24.84,5.18,31.63,15.72,7.68-9.82,20.19-15.72,34.66-15.72C175.27,34.05,191.71,47.27,191.71,76.57Z"/><path class="cls-1" d="M489.23,127c-5.71,4.11-14.11,6.08-22.68,6.08-22.69,0-35.92-11.61-35.92-34.48V59.06H415.81V37.63h14.82V14.22h27.88V37.63h23.93V59.06H458.51V98.19c0,8.22,4.46,12.68,12,12.68a18.81,18.81,0,0,0,11.25-3.57Z"/><path class="cls-1" d="M308.13,91.4H235.42c2.68,12,12.86,19.29,27.51,19.29,10.18,0,17.51-3,24.12-9.28l14.82,16.08C292.94,127.67,279.54,133,262.21,133c-33.22,0-54.84-20.91-54.84-49.49,0-28.76,22-49.49,51.27-49.49,28.23,0,50,18.94,50,49.85C308.66,86,308.3,89.08,308.13,91.4ZM235.06,75.14H282.4c-2-12.15-11.08-20-23.58-20C246.14,55.13,237,62.82,235.06,75.14Z"/><g id="e" class="cls-2"><text class="cls-3" transform="matrix(-1, 0, 0, 1, 400.15, 131.6)">e</text></g></g></svg>