<svg xmlns="http://www.w3.org/2000/svg" viewBox="0 0 1366 1366"><defs><style>.cls-1,.cls-3{fill:#e2d36b;}.cls-2,.cls-3{isolation:isolate;}.cls-3{font-size:178.69px;font-family:Montserrat-Bold, Montserrat;font-weight:700;}</style></defs><g id="Layer_1" data-name="Layer 1"><path class="cls-1" d="M401.65,1005.43v55H373.78v-50.74c0-15.54-7-22.69-18.23-22.69-12.5,0-21.26,8-21.26,25.19v48.24H306.42v-50.74c0-15.54-6.61-22.69-18.22-22.69-12.33,0-21.08,8-21.08,25.19v48.24H239.25V964.34h26.62v11.08c7.15-8.22,17.87-12.5,30.19-12.5,13.4,0,24.83,5.17,31.63,15.71,7.68-9.82,20.18-15.71,34.65-15.71C385.21,962.92,401.65,976.13,401.65,1005.43Z"/><path class="cls-1" d="M699.17,1055.81c-5.72,4.11-14.11,6.08-22.69,6.08-22.69,0-35.91-11.61-35.91-34.48V987.92H625.74V966.49h14.83V943.08h27.87v23.41h23.94v21.43H668.44v39.13c0,8.22,4.47,12.68,12,12.68a18.75,18.75,0,0,0,11.26-3.57Z"/><path class="cls-1" d="M518.07,1020.26H445.35c2.68,12,12.86,19.29,27.51,19.29,10.19,0,17.51-3,24.12-9.28l14.83,16.08c-8.93,10.18-22.33,15.54-39.66,15.54-33.23,0-54.85-20.9-54.85-49.49,0-28.76,22-49.48,51.28-49.48,28.22,0,50,18.93,50,49.84C518.6,1014.9,518.24,1017.94,518.07,1020.26ZM445,1004h47.34c-2-12.14-11.08-20-23.59-20C456.07,984,447,991.68,445,1004Z"/><g id="e" class="cls-2"><text class="cls-3" transform="matrix(-1, 0, 0, 1, 610.09, 1060.46)">e</text></g></g></svg>